# xmcd
#
# Track frame offsets: 
#        150
#        13076
#        21498
#        39788
#        53145
#        68680
#        78691
#        92362
#        99560
#        115117
#        128341
#        135199
#        146397
#        159166
#
# Disc length: 2330 seconds
#
# Revision: 2
# Processed by: cddbd v1.5.1PL2 Copyright (c) Steve Scherf et al.
# Submitted via: ExactAudioCopy v0.90b4
#
DISCID=9f09180e
DTITLE=Steinar Albrigtsen - Stripped
DYEAR=2001
DGENRE=Blues
TTITLE0=Goin' train blues
TTITLE1=My heart's a loser
TTITLE2=Childraisin' blues
TTITLE3=Hard time killin' floor
TTITLE4=Just a dream
TTITLE5=Pallett on your floor
TTITLE6=Keep it clean
TTITLE7=Key to the Highway
TTITLE8=Mean ol' frisco
TTITLE9=Candyman
TTITLE10=Linin' Track
TTITLE11=Stack'o Lee Blues
TTITLE12=Don't drive me away
TTITLE13=Saturday evening blues
EXTD=
EXTT0=
EXTT1=
EXTT2=
EXTT3=
EXTT4=
EXTT5=
EXTT6=
EXTT7=
EXTT8=
EXTT9=
EXTT10=
EXTT11=
EXTT12=
EXTT13=
PLAYORDER=
